<mxfile host="app.diagrams.net" modified="2021-07-26T04:59:44.789Z" agent="5.0 (Macintosh; Intel Mac OS X 10_15_7) AppleWebKit/537.36 (KHTML, like Gecko) Chrome/91.0.4472.114 Safari/537.36" etag="o4jwKwDDU9gdzgSLOO7Q" version="14.9.2" type="github">
  <diagram id="_4nTsSpE2cZ2mVLc5QJQ" name="Page-1">
    <mxGraphModel dx="1188" dy="643" grid="0" gridSize="10" guides="1" tooltips="1" connect="1" arrows="1" fold="1" page="1" pageScale="1" pageWidth="850" pageHeight="1100" math="0" shadow="0">
      <root>
        <mxCell id="0" />
        <mxCell id="1" parent="0" />
        <mxCell id="mRSaWbxFbk9eLZvZXtLE-1" value="" style="shape=mxgraph.signs.people.man_1;html=1;pointerEvents=1;fillColor=#d5e8d4;strokeColor=#82b366;verticalLabelPosition=bottom;verticalAlign=top;align=center;" parent="1" vertex="1">
          <mxGeometry x="76.5" y="70" width="37" height="98" as="geometry" />
        </mxCell>
        <mxCell id="mRSaWbxFbk9eLZvZXtLE-2" value="Original Owner / Issuing Entity" style="text;whiteSpace=wrap;html=1;align=center;" parent="1" vertex="1">
          <mxGeometry x="40" y="200" width="110" height="30" as="geometry" />
        </mxCell>
        <mxCell id="mRSaWbxFbk9eLZvZXtLE-3" value="" style="shape=mxgraph.signs.people.man_1;html=1;pointerEvents=1;strokeColor=#d79b00;verticalLabelPosition=bottom;verticalAlign=top;align=center;fillColor=#ffe6cc;" parent="1" vertex="1">
          <mxGeometry x="276.5" y="70" width="37" height="98" as="geometry" />
        </mxCell>
        <mxCell id="mRSaWbxFbk9eLZvZXtLE-4" value="" style="shape=mxgraph.signs.people.man_1;html=1;pointerEvents=1;fillColor=#dae8fc;strokeColor=#6c8ebf;verticalLabelPosition=bottom;verticalAlign=top;align=center;" parent="1" vertex="1">
          <mxGeometry x="456.5" y="70" width="37" height="98" as="geometry" />
        </mxCell>
        <mxCell id="mRSaWbxFbk9eLZvZXtLE-5" value="Buyer 1 (NFT Holder)" style="text;whiteSpace=wrap;html=1;align=center;" parent="1" vertex="1">
          <mxGeometry x="240" y="200" width="110" height="30" as="geometry" />
        </mxCell>
        <mxCell id="mRSaWbxFbk9eLZvZXtLE-6" value="Buyer 2 (NFT Purchaser)" style="text;whiteSpace=wrap;html=1;align=center;" parent="1" vertex="1">
          <mxGeometry x="420" y="200" width="110" height="30" as="geometry" />
        </mxCell>
        <mxCell id="z0YaZh2Ky4zPHxS7egPp-5" value="" style="shape=singleArrow;whiteSpace=wrap;html=1;arrowWidth=0.4;arrowSize=0.4;verticalAlign=top;strokeColor=#d79b00;fillColor=#ffe6cc;" vertex="1" parent="1">
          <mxGeometry x="360" y="109" width="40" height="20" as="geometry" />
        </mxCell>
        <mxCell id="z0YaZh2Ky4zPHxS7egPp-7" value="" style="shape=singleArrow;whiteSpace=wrap;html=1;arrowWidth=0.4;arrowSize=0.4;verticalAlign=top;strokeColor=#82b366;fillColor=#d5e8d4;" vertex="1" parent="1">
          <mxGeometry x="160" y="109" width="40" height="20" as="geometry" />
        </mxCell>
        <mxCell id="z0YaZh2Ky4zPHxS7egPp-13" value="&lt;font style=&quot;font-size: 8px&quot;&gt;Sell&lt;/font&gt;" style="text;whiteSpace=wrap;html=1;align=center;" vertex="1" parent="1">
          <mxGeometry x="150" y="119" width="50" height="10" as="geometry" />
        </mxCell>
        <mxCell id="z0YaZh2Ky4zPHxS7egPp-14" value="&lt;div&gt;&lt;span style=&quot;font-size: 7px ; line-height: 0%&quot;&gt;Data NFT&lt;/span&gt;&lt;/div&gt;" style="rounded=1;whiteSpace=wrap;html=1;align=center;" vertex="1" parent="1">
          <mxGeometry x="155" y="140" width="40" height="19" as="geometry" />
        </mxCell>
        <mxCell id="z0YaZh2Ky4zPHxS7egPp-15" value="&lt;font style=&quot;font-size: 8px&quot;&gt;Sell&lt;/font&gt;" style="text;whiteSpace=wrap;html=1;align=center;" vertex="1" parent="1">
          <mxGeometry x="350" y="119" width="50" height="10" as="geometry" />
        </mxCell>
        <mxCell id="z0YaZh2Ky4zPHxS7egPp-16" value="&lt;div&gt;&lt;span style=&quot;font-size: 7px ; line-height: 0%&quot;&gt;Data NFT&lt;/span&gt;&lt;/div&gt;" style="rounded=1;whiteSpace=wrap;html=1;align=center;" vertex="1" parent="1">
          <mxGeometry x="355" y="140" width="40" height="19" as="geometry" />
        </mxCell>
      </root>
    </mxGraphModel>
  </diagram>
</mxfile>
